PathFileType	4	(X/Y/Z)	./resultDataOpenSim/trcMotMarkerGrf/sub06/qtm-01-05.trc
DataRate	CameraRate	NumFrames	NumMarkers	Units	OrigDataRate	OrigDataStartFrame	OrigNumFrames
250.000000	250.000000	12	24	m	250.000000	252	503
Frame#	Time	L.Toe.Tip			R.Toe.Tip			L.Ankle.Lat			R.Ankle.Lat			L.Ankle.Med			R.Ankle.Med			L.Heel			R.Heel			L.Knee.Lat			R.Knee.Lat			L.Knee.Med			R.Knee.Med			L.Thigh.Upper			R.Thigh.Upper			L.ASIS			R.ASIS			V.Sacral			L.Acromium			R.Acromium			C7			L.Elbow			R.Elbow			L.Wrist.Lat			R.Wrist.Lat
		X1	Y1	Z1	X2	Y2	Z2	X3	Y3	Z3	X4	Y4	Z4	X5	Y5	Z5	X6	Y6	Z6	X7	Y7	Z7	X8	Y8	Z8	X9	Y9	Z9	X10	Y10	Z10	X11	Y11	Z11	X12	Y12	Z12	X13	Y13	Z13	X14	Y14	Z14	X15	Y15	Z15	X16	Y16	Z16	X17	Y17	Z17	X18	Y18	Z18	X19	Y19	Z19	X20	Y20	Z20	X21	Y21	Z21	X22	Y22	Z22	X23	Y23	Z23	X24	Y24	Z24

252	1.004	0.030386845	0.034684196	-0.047354001	0.53798757	0.092608848	0.15083719	-0.08775401	0.081031684	-0.071470037	0.40044085	0.083375799	0.15497446	-0.086486843	0.094442079	0.016424274	0.42715913	0.11489072	0.072889638	-0.16592151	0.063887331	-0.026200858	0.36630224	0.050301961	0.08507413	0.061015605	0.42240296	-0.084914946	0.34960949	0.47333633	0.17198926	0.041261219	0.42722463	0.033818655	0.33687924	0.45136394	0.043992114	0.14106713	0.80091712	-0.15260256	0.16285015	0.79892104	0.19643323	0.22360488	0.84379892	-0.11408521	0.24343865	0.85449537	0.13425355	0.046674992	0.92119415	0.029369339	0.1825071	1.3350419	-0.16490728	0.15211034	1.3149832	0.1967689	0.092628913	1.3633911	0.0096441126	0.20142976	1.0141365	-0.24605227	0.014233303	1.0294349	0.24574092	0.41937653	0.90110522	-0.19885546	0.090637055	0.80567568	0.29758077
253	1.008	0.030384913	0.03464679	-0.04742413	0.55485811	0.096414642	0.1507873	-0.087279429	0.08174622	-0.071674968	0.4174377	0.08370545	0.1561172	-0.085837319	0.095141321	0.016127875	0.44299944	0.11557697	0.073801477	-0.16558479	0.065250947	-0.026400536	0.38388517	0.049296269	0.086648204	0.064082166	0.42199693	-0.085141974	0.35607213	0.47159839	0.17166703	0.044809544	0.42663649	0.033738888	0.34346005	0.44908801	0.043427086	0.14630606	0.79989822	-0.15211484	0.16808393	0.79762148	0.19651952	0.22985013	0.84262437	-0.113667	0.25027263	0.85298812	0.13434996	0.053515307	0.92000199	0.030423504	0.18912363	1.3337716	-0.16448775	0.15836378	1.3135877	0.19722102	0.099150504	1.3621685	0.010032513	0.21003087	1.0130111	-0.24592853	0.019992321	1.0285683	0.24588921	0.42862233	0.90175073	-0.19743172	0.094280592	0.80440185	0.29852148
254	1.012	0.030379909	0.034605868	-0.047493302	0.57116318	0.10035122	0.15082638	-0.086797515	0.082512107	-0.071905225	0.43410172	0.08416077	0.15721579	-0.085127055	0.095870372	0.01586052	0.45837918	0.1164505	0.074741731	-0.16516637	0.066604576	-0.026504876	0.40097485	0.048611691	0.088167636	0.067445352	0.42162824	-0.085435224	0.36249529	0.46981858	0.1713677	0.048475193	0.42605539	0.033644181	0.35017304	0.44685276	0.042729462	0.15160519	0.79888078	-0.15160581	0.17253368	0.79624263	0.19623053	0.23607375	0.8414354	-0.11326997	0.25713362	0.85150086	0.13432976	0.060176677	0.91881878	0.031354093	0.1957329	1.3324967	-0.16404659	0.16465639	1.3121909	0.19769485	0.10570186	1.3609315	0.010404764	0.21862241	1.0118844	-0.24573419	0.025821065	1.0276745	0.24606142	0.43780129	0.90231909	-0.19599876	0.097989886	0.80316367	0.29945066
255	1.016	0.030376361	0.034562108	-0.047554946	0.5868738	0.10433744	0.15096351	-0.086295429	0.083309381	-0.072098245	0.45035376	0.084729978	0.15822894	-0.084335606	0.096656783	0.015614842	0.47324687	0.11746619	0.075656403	-0.16467879	0.068000496	-0.026600145	0.41752845	0.048183028	0.089634418	0.071025835	0.42128941	-0.085755916	0.36885627	0.46802774	0.17110292	0.052245953	0.42549895	0.033547498	0.3569964	0.4446856	0.041913357	0.15697294	0.79786285	-0.15106957	0.1775367	0.79468194	0.19561784	0.24224255	0.84022096	-0.11297327	0.26402223	0.85004257	0.13417933	0.066832421	0.91759201	0.03226961	0.20233793	1.3312188	-0.16358251	0.17100773	1.3107945	0.19819649	0.11224305	1.3597039	0.010819182	0.22720628	1.0107429	-0.24546702	0.031719652	1.0267537	0.24626282	0.4469232	0.90281674	-0.1945565	0.10178224	0.80192275	0.30036891
256	1.02	0.030380454	0.034520496	-0.047607603	0.60196485	0.10831	0.15117096	-0.085734355	0.084104122	-0.072210712	0.46599831	0.085499811	0.1591697	-0.083467158	0.097522396	0.01538356	0.48756384	0.11857544	0.076495878	-0.16414464	0.069493394	-0.026794879	0.43350856	0.047937079	0.091056284	0.074636408	0.4209528	-0.086023015	0.37517721	0.46626117	0.17088437	0.056092872	0.42497958	0.033477827	0.36385279	0.44261004	0.041037739	0.16241259	0.79685054	-0.15047926	0.18415742	0.79293244	0.19490496	0.24835707	0.83899067	-0.11282094	0.27094783	0.8486193	0.13390529	0.073549266	0.91631845	0.033266927	0.20894299	1.3299407	-0.16309297	0.17742142	1.3093988	0.19871913	0.11872946	1.3585062	0.011337966	0.23577481	1.0095937	-0.24511222	0.037681464	1.0258111	0.24649529	0.45598611	0.90324827	-0.19311993	0.10571736	0.80066501	0.30128848
257	1.024	0.030399416	0.034487436	-0.047655203	0.61640363	0.1122324	0.1513958	-0.085065562	0.084894364	-0.072315028	0.48087225	0.086542214	0.1600751	-0.082531273	0.098478318	0.015164992	0.50131149	0.11972701	0.077224562	-0.16358034	0.071112082	-0.027113323	0.44888088	0.047812484	0.09240623	0.078177826	0.4206062	-0.086194494	0.38148635	0.46455378	0.17069755	0.059984401	0.42450628	0.03346578	0.370699	0.44066075	0.040167962	0.16791869	0.79584738	-0.14982262	0.19226483	0.79110018	0.19435661	0.2544332	0.83776381	-0.11281497	0.27793304	0.84723197	0.13354788	0.080398488	0.91502204	0.034338276	0.2155497	1.3286674	-0.16257903	0.18388049	1.3080074	0.19925235	0.12516911	1.357338	0.011951168	0.24431735	1.0084485	-0.24465228	0.043703632	1.0248521	0.24675307	0.46497912	0.90361078	-0.19170611	0.10984691	0.79940237	0.30222251
258	1.028	0.030434434	0.034464881	-0.047703848	0.63015567	0.11606663	0.1515956	-0.084273828	0.085721953	-0.072521188	0.49502666	0.087744194	0.16091734	-0.081554497	0.099511846	0.01494222	0.51450324	0.12086576	0.077820093	-0.16298648	0.072860142	-0.027490564	0.46361913	0.047762224	0.093620635	0.081709695	0.42025595	-0.086293451	0.38779622	0.46294553	0.17051211	0.063911065	0.42407819	0.033520708	0.37755503	0.43887555	0.039344716	0.17348878	0.79483341	-0.14914345	0.20107041	0.78933893	0.19417122	0.26050979	0.83655776	-0.11288786	0.28500805	0.8458771	0.13317161	0.087547718	0.91370847	0.035368508	0.22215807	1.3274032	-0.16204382	0.19036791	1.3066262	0.19979412	0.1316555	1.356175	0.0125541	0.25282517	1.0073137	-0.24408498	0.049785889	1.0238784	0.24702899	0.47389783	0.90390124	-0.19031679	0.11416589	0.79814128	0.30317036
259	1.032	0.030478209	0.034448287	-0.047756614	0.64319719	0.11974739	0.15175706	-0.083409845	0.086646528	-0.07283581	0.50856959	0.088911725	0.16162381	-0.080579744	0.10059783	0.014682036	0.52717895	0.121942	0.078272639	-0.16235712	0.074727666	-0.027877696	0.47770378	0.047756835	0.094620949	0.085342178	0.41990545	-0.086363994	0.39415847	0.46148496	0.17031276	0.067913133	0.42367891	0.03361384	0.38445561	0.43727755	0.038591264	0.17912842	0.79376139	-0.14853315	0.20995497	0.78774912	0.19441627	0.26663748	0.83537854	-0.11293279	0.29219638	0.84455081	0.13283445	0.095144053	0.91236244	0.036258745	0.22876848	1.326151	-0.16148962	0.19688865	1.3052617	0.20035283	0.13829666	1.3549882	0.013032486	0.26129235	1.0061914	-0.24342769	0.055920561	1.0228893	0.24731573	0.48274867	0.90412344	-0.18893777	0.11861185	0.79687714	0.30411853
260	1.036	0.030523008	0.034431685	-0.047812896	0.65552137	0.12317486	0.15188303	-0.082527124	0.087694023	-0.073186757	0.52139063	0.090004418	0.16216699	-0.079622401	0.10172644	0.014367131	0.53937247	0.1229285	0.07858247	-0.16168871	0.07669483	-0.028283221	0.49111785	0.047777937	0.095342299	0.089138082	0.41955135	-0.086433018	0.40065896	0.46019902	0.17010145	0.07210411	0.42327454	0.033672406	0.39141376	0.43587073	0.037925301	0.18484375	0.7925923	-0.14806099	0.21868578	0.78634881	0.19504516	0.27284395	0.83422341	-0.11288962	0.29950619	0.84325196	0.13256614	0.10306979	0.91100791	0.037042486	0.23538304	1.3249124	-0.16091718	0.20345986	1.3039172	0.20093923	0.1451011	1.3537712	0.013383383	0.26971746	1.0050797	-0.24269198	0.062092698	1.0218872	0.24760779	0.49153522	0.90428291	-0.18755743	0.12311808	0.79561629	0.30505881
261	1.04	0.030568128	0.03441265	-0.047871125	0.66713927	0.12622743	0.15197912	-0.081613851	0.088835346	-0.073526412	0.53328879	0.091077054	0.16254523	-0.078653821	0.10290746	0.014010719	0.5510776	0.12381703	0.078749501	-0.16097371	0.078745268	-0.028723159	0.50384062	0.047806708	0.095747322	0.093108435	0.41919469	-0.086502461	0.40734745	0.45906716	0.16988165	0.076620503	0.42282678	0.033617756	0.39841944	0.43464401	0.037360133	0.19063938	0.79135763	-0.14770839	0.22725845	0.78510969	0.19596234	0.2791246	0.83308972	-0.11277198	0.30693335	0.84198233	0.13237162	0.11093962	0.90973025	0.037827963	0.24200673	1.3236894	-0.16032665	0.21008677	1.3025934	0.20155907	0.15195858	1.3525528	0.013741097	0.27810462	1.0039712	-0.24185676	0.068302827	1.020882	0.2479109	0.50025002	0.90438221	-0.18617853	0.12764529	0.79438031	0.30599558
262	1.044	0.030618611	0.034392298	-0.047930021	0.67807535	0.12879445	0.15204819	-0.080632938	0.090033617	-0.073850271	0.54424804	0.092084502	0.16271994	-0.077630327	0.10415399	0.013639001	0.56223943	0.12459057	0.078761602	-0.1601931	0.0808821	-0.029186809	0.51584709	0.047816391	0.095821084	0.097247855	0.41883861	-0.086559478	0.41423334	0.45804783	0.16966128	0.081462218	0.42233045	0.033459924	0.40545059	0.43357654	0.036902309	0.19652002	0.7901616	-0.1473815	0.23572387	0.78399295	0.19706785	0.28546743	0.83197962	-0.11261759	0.31446885	0.84074501	0.13224527	0.11845727	0.90859479	0.038646301	0.24864584	1.3224875	-0.15971869	0.21676329	1.301293	0.20221228	0.15874544	1.3513812	0.014262315	0.28645719	1.0028641	-0.24089023	0.074583162	1.0198865	0.24824022	0.50888507	0.90442357	-0.18480684	0.13218002	0.79318602	0.30693454
263	1.048	0.030679986	0.034373918	-0.047989247	0.68835923	0.13080328	0.15208229	-0.079574655	0.091286388	-0.074177088	0.55443581	0.09287359	0.16262682	-0.076520339	0.10547304	0.013271136	0.57278735	0.125209	0.0786001	-0.15932407	0.083123341	-0.029655512	0.5271182	0.047769164	0.095569745	0.10155773	0.41847846	-0.086591828	0.42132102	0.4571166	0.16946045	0.086448744	0.42182355	0.033315069	0.41248702	0.43264779	0.036547938	0.20248684	0.78908698	-0.14699105	0.2441112	0.78296342	0.19826925	0.29187023	0.83089884	-0.11245386	0.32210353	0.83954329	0.13218065	0.12563744	0.90758789	0.039463638	0.25530633	1.3213141	-0.15909258	0.2234869	1.3000252	0.20289651	0.16543537	1.3502897	0.014985615	0.29476778	1.0017726	-0.23980851	0.080972594	1.0189101	0.24860316	0.51744192	0.9044092	-0.18343848	0.13675815	0.7920356	0.30787669
